<svg width="9" height="5" viewBox="0 0 9 5" fill="none" xmlns="http://www.w3.org/2000/svg">
<path d="M8.82213 4.82679C8.70356 4.94226 8.56316 5 8.40095 5C8.23905 5 8.09881 4.94226 7.98024 4.82679L4.50593 1.44342L1.01976 4.83834C0.909091 4.94611 0.770751 5 0.604743 5C0.438735 5 0.296443 4.94226 0.177866 4.82679C0.0592885 4.71132 -1.8595e-08 4.5746 -2.55e-08 4.41663C-3.23915e-08 4.25897 0.0592885 4.1224 0.177866 4.00693L4.17391 0.12702C4.22134 0.0808309 4.27273 0.0480369 4.32806 0.0286372C4.3834 0.00954561 4.44269 -1.94196e-07 4.50593 -1.9696e-07C4.56917 -1.99725e-07 4.62846 0.0095456 4.68379 0.0286372C4.73913 0.0480368 4.79051 0.0808308 4.83794 0.12702L8.83399 4.01848C8.94466 4.12625 9 4.25897 9 4.41663C9 4.5746 8.94071 4.71132 8.82213 4.82679Z" fill="#208B2B"/>
</svg>
