<svg width="20" height="17" viewBox="0 0 20 17" fill="none" xmlns="http://www.w3.org/2000/svg">
<path d="M7.75935 1.08331C6.25406 0.364678 4.15007 0.0126505 1.33322 0.000152442C1.06757 -0.00345653 0.807122 0.0740027 0.58662 0.222201C0.40563 0.344527 0.257474 0.50945 0.155185 0.702464C0.0528948 0.895478 -0.000395118 1.11067 2.20559e-06 1.32911V13.2481C2.20559e-06 14.0538 0.573288 14.6616 1.33322 14.6616C4.29423 14.6616 7.26439 14.9382 9.04341 16.6196C9.06775 16.6427 9.09834 16.6582 9.13138 16.664C9.16442 16.6699 9.19846 16.6659 9.22927 16.6526C9.26007 16.6393 9.28628 16.6172 9.30465 16.5891C9.32301 16.561 9.33272 16.5282 9.33255 16.4946V2.4506C9.33263 2.35584 9.31236 2.26218 9.27311 2.17593C9.23387 2.08969 9.17656 2.01287 9.10507 1.95068C8.69757 1.60233 8.24491 1.31058 7.75935 1.08331ZM19.4117 0.220951C19.1911 0.0731217 18.9306 -0.00390507 18.6651 0.000152442C15.8483 0.0126505 13.7443 0.363012 12.239 1.08331C11.7534 1.31016 11.3007 1.60134 10.8928 1.94901C10.8215 2.01131 10.7643 2.08816 10.7252 2.17439C10.686 2.26062 10.6658 2.35423 10.6658 2.44893V16.4938C10.6658 16.526 10.6753 16.5576 10.6931 16.5844C10.7109 16.6113 10.7363 16.6323 10.766 16.6448C10.7958 16.6573 10.8285 16.6608 10.8602 16.6547C10.8919 16.6487 10.9211 16.6334 10.9441 16.6109C12.0136 15.5485 13.8905 14.6603 18.6668 14.6608C19.0204 14.6608 19.3595 14.5203 19.6095 14.2703C19.8595 14.0203 20 13.6812 20 13.3276V1.32953C20.0005 1.11065 19.9471 0.895029 19.8445 0.70169C19.7419 0.508351 19.5932 0.343245 19.4117 0.220951Z" fill="#199730"/>
</svg>
