<svg width="17" height="13" viewBox="0 0 17 13" fill="none" xmlns="http://www.w3.org/2000/svg">
<path d="M15.5919 0.224244H11.4657C10.776 0.223776 10.1067 0.458243 9.56801 0.889023C9.02937 1.3198 8.65351 1.9212 8.50236 2.59415C8.35086 1.92138 7.97491 1.32021 7.43634 0.889489C6.89778 0.458772 6.22867 0.224162 5.53905 0.224244H1.41602C1.04029 0.224385 0.679995 0.373704 0.414315 0.639383C0.148636 0.905062 -0.000683174 1.26536 -0.000823975 1.64109V8.89584C-0.000683174 9.27157 0.148636 9.63186 0.414315 9.89754C0.679995 10.1632 1.04029 10.3125 1.41602 10.3127H4.06324C7.07968 10.3127 7.97961 11.0325 8.41046 12.5264C8.43118 12.6093 8.56399 12.6093 8.58736 12.5264C9.02139 11.0331 9.92133 10.3127 12.9346 10.3127H15.5818C15.9575 10.3125 16.3178 10.1632 16.5835 9.89754C16.8492 9.63186 16.9985 9.27157 16.9986 8.89584V1.64428C16.9987 1.26982 16.8507 0.910521 16.587 0.644647C16.3233 0.378772 15.9653 0.227858 15.5908 0.224775L15.5919 0.224244ZM7.14183 8.05699C7.14197 8.07057 7.13941 8.08403 7.13428 8.0966C7.12915 8.10917 7.12156 8.12059 7.11196 8.13019C7.10236 8.13979 7.09095 8.14737 7.07838 8.1525C7.06581 8.15763 7.05234 8.1602 7.03877 8.16006H2.30746C2.2939 8.16013 2.28047 8.15751 2.26793 8.15235C2.2554 8.1472 2.24401 8.13961 2.23442 8.13003C2.22484 8.12044 2.21725 8.10905 2.2121 8.09652C2.20694 8.08398 2.20432 8.07055 2.20439 8.05699V7.38124C2.20439 7.32546 2.24849 7.27818 2.30746 7.27818H7.04143C7.09721 7.27818 7.14449 7.32228 7.14449 7.38124V8.05699H7.14183ZM7.14183 6.25978C7.1419 6.27333 7.13929 6.28676 7.13413 6.2993C7.12898 6.31183 7.12139 6.32322 7.1118 6.33281C7.10222 6.34239 7.09083 6.34998 7.07829 6.35514C7.06576 6.36029 7.05232 6.36291 7.03877 6.36284H2.30746C2.2939 6.36291 2.28047 6.36029 2.26793 6.35514C2.2554 6.34998 2.24401 6.34239 2.23442 6.33281C2.22484 6.32322 2.21725 6.31183 2.2121 6.2993C2.20694 6.28676 2.20432 6.27333 2.20439 6.25978V5.58402C2.20439 5.52771 2.24849 5.48096 2.30746 5.48096H7.04143C7.09721 5.48096 7.14449 5.52506 7.14449 5.58402V6.25978H7.14183ZM7.14183 4.46256C7.1419 4.47611 7.13929 4.48954 7.13413 4.50208C7.12898 4.51462 7.12139 4.526 7.1118 4.53559C7.10222 4.54517 7.09083 4.55276 7.07829 4.55792C7.06576 4.56307 7.05232 4.56569 7.03877 4.56562H2.30746C2.2939 4.56569 2.28047 4.56307 2.26793 4.55792C2.2554 4.55276 2.24401 4.54517 2.23442 4.53559C2.22484 4.526 2.21725 4.51462 2.2121 4.50208C2.20694 4.48954 2.20432 4.47611 2.20439 4.46256V3.78681C2.20439 3.73103 2.24849 3.68374 2.30746 3.68374H7.04143C7.09721 3.68374 7.14449 3.72784 7.14449 3.78681V4.46256H7.14183ZM14.795 8.05434C14.7951 8.06789 14.7925 8.08132 14.7873 8.09386C14.7822 8.1064 14.7746 8.11779 14.765 8.12737C14.7554 8.13695 14.744 8.14454 14.7315 8.1497C14.7189 8.15485 14.7055 8.15747 14.692 8.1574H9.96064C9.94709 8.15747 9.93366 8.15485 9.92112 8.1497C9.90858 8.14454 9.8972 8.13695 9.88761 8.12737C9.87803 8.11779 9.87044 8.1064 9.86528 8.09386C9.86013 8.08132 9.85751 8.06789 9.85758 8.05434V7.37859C9.85758 7.32281 9.90168 7.27553 9.96064 7.27553H14.6946C14.7509 7.27553 14.7977 7.31962 14.7977 7.37859V8.05434H14.795ZM14.795 6.25712C14.7952 6.27069 14.7926 6.28416 14.7875 6.29673C14.7823 6.3093 14.7747 6.32071 14.7652 6.33031C14.7556 6.33991 14.7441 6.3475 14.7316 6.35263C14.719 6.35775 14.7055 6.36032 14.692 6.36018H9.96064C9.94709 6.36025 9.93366 6.35763 9.92112 6.35248C9.90858 6.34732 9.8972 6.33974 9.88761 6.33015C9.87803 6.32057 9.87044 6.30918 9.86528 6.29664C9.86013 6.28411 9.85751 6.27067 9.85758 6.25712V5.58137C9.85758 5.52559 9.90168 5.47831 9.96064 5.47831H14.6946C14.7509 5.47831 14.7977 5.5224 14.7977 5.58137V6.25712H14.795ZM14.795 4.45937C14.7951 4.47292 14.7925 4.48636 14.7873 4.49889C14.7822 4.51143 14.7746 4.52282 14.765 4.5324C14.7554 4.54199 14.744 4.54957 14.7315 4.55473C14.7189 4.55988 14.7055 4.5625 14.692 4.56243H9.96064C9.94709 4.5625 9.93366 4.55988 9.92112 4.55473C9.90858 4.54957 9.8972 4.54199 9.88761 4.5324C9.87803 4.52282 9.87044 4.51143 9.86528 4.49889C9.86013 4.48636 9.85751 4.47292 9.85758 4.45937V3.78628C9.85758 3.73049 9.90168 3.68321 9.96064 3.68321H14.6946C14.7509 3.68321 14.7977 3.72731 14.7977 3.78628V4.45937H14.795Z" fill="white"/>
</svg>
