<svg width="8" height="9" viewBox="0 0 8 9" fill="none" xmlns="http://www.w3.org/2000/svg">
<path d="M4 5.4C3.87407 5.4 3.76859 5.3568 3.68356 5.2704C3.59822 5.1843 3.55556 5.0775 3.55556 4.95C3.55556 4.8225 3.59822 4.71555 3.68356 4.62915C3.76859 4.54305 3.87407 4.5 4 4.5C4.12593 4.5 4.23156 4.54305 4.31689 4.62915C4.40193 4.71555 4.44444 4.8225 4.44444 4.95C4.44444 5.0775 4.40193 5.1843 4.31689 5.2704C4.23156 5.3568 4.12593 5.4 4 5.4ZM2.22222 5.4C2.0963 5.4 1.99067 5.3568 1.90533 5.2704C1.8203 5.1843 1.77778 5.0775 1.77778 4.95C1.77778 4.8225 1.8203 4.71555 1.90533 4.62915C1.99067 4.54305 2.0963 4.5 2.22222 4.5C2.34815 4.5 2.45378 4.54305 2.53911 4.62915C2.62415 4.71555 2.66667 4.8225 2.66667 4.95C2.66667 5.0775 2.62415 5.1843 2.53911 5.2704C2.45378 5.3568 2.34815 5.4 2.22222 5.4ZM5.77778 5.4C5.65185 5.4 5.54637 5.3568 5.46133 5.2704C5.376 5.1843 5.33333 5.0775 5.33333 4.95C5.33333 4.8225 5.376 4.71555 5.46133 4.62915C5.54637 4.54305 5.65185 4.5 5.77778 4.5C5.9037 4.5 6.00919 4.54305 6.09422 4.62915C6.17956 4.71555 6.22222 4.8225 6.22222 4.95C6.22222 5.0775 6.17956 5.1843 6.09422 5.2704C6.00919 5.3568 5.9037 5.4 5.77778 5.4ZM4 7.2C3.87407 7.2 3.76859 7.1568 3.68356 7.0704C3.59822 6.9843 3.55556 6.8775 3.55556 6.75C3.55556 6.6225 3.59822 6.5157 3.68356 6.4296C3.76859 6.3432 3.87407 6.3 4 6.3C4.12593 6.3 4.23156 6.3432 4.31689 6.4296C4.40193 6.5157 4.44444 6.6225 4.44444 6.75C4.44444 6.8775 4.40193 6.9843 4.31689 7.0704C4.23156 7.1568 4.12593 7.2 4 7.2ZM2.22222 7.2C2.0963 7.2 1.99067 7.1568 1.90533 7.0704C1.8203 6.9843 1.77778 6.8775 1.77778 6.75C1.77778 6.6225 1.8203 6.5157 1.90533 6.4296C1.99067 6.3432 2.0963 6.3 2.22222 6.3C2.34815 6.3 2.45378 6.3432 2.53911 6.4296C2.62415 6.5157 2.66667 6.6225 2.66667 6.75C2.66667 6.8775 2.62415 6.9843 2.53911 7.0704C2.45378 7.1568 2.34815 7.2 2.22222 7.2ZM5.77778 7.2C5.65185 7.2 5.54637 7.1568 5.46133 7.0704C5.376 6.9843 5.33333 6.8775 5.33333 6.75C5.33333 6.6225 5.376 6.5157 5.46133 6.4296C5.54637 6.3432 5.65185 6.3 5.77778 6.3C5.9037 6.3 6.00919 6.3432 6.09422 6.4296C6.17956 6.5157 6.22222 6.6225 6.22222 6.75C6.22222 6.8775 6.17956 6.9843 6.09422 7.0704C6.00919 7.1568 5.9037 7.2 5.77778 7.2ZM0.888889 9C0.644444 9 0.435111 8.91195 0.260889 8.73585C0.0869629 8.55945 0 8.3475 0 8.1V1.8C0 1.5525 0.0869629 1.3407 0.260889 1.1646C0.435111 0.9882 0.644444 0.9 0.888889 0.9H1.33333V0.45C1.33333 0.3225 1.37585 0.21555 1.46089 0.12915C1.54622 0.04305 1.65185 0 1.77778 0C1.9037 0 2.00933 0.04305 2.09467 0.12915C2.1797 0.21555 2.22222 0.3225 2.22222 0.45V0.9H5.77778V0.45C5.77778 0.3225 5.82044 0.21555 5.90578 0.12915C5.99081 0.04305 6.0963 0 6.22222 0C6.34815 0 6.45363 0.04305 6.53867 0.12915C6.624 0.21555 6.66667 0.3225 6.66667 0.45V0.9H7.11111C7.35556 0.9 7.56489 0.9882 7.73911 1.1646C7.91304 1.3407 8 1.5525 8 1.8V8.1C8 8.3475 7.91304 8.55945 7.73911 8.73585C7.56489 8.91195 7.35556 9 7.11111 9H0.888889ZM0.888889 8.1H7.11111V3.6H0.888889V8.1Z" fill="#3F3F3F"/>
</svg>
