<svg width="25" height="25" viewBox="0 0 25 25" fill="none" xmlns="http://www.w3.org/2000/svg">
<path opacity="0.4" d="M21.25 2.5H20V1.25C20 0.5 19.5 0 18.75 0C18 0 17.5 0.5 17.5 1.25V2.5H7.5V1.25C7.5 0.5 7 0 6.25 0C5.5 0 5 0.5 5 1.25V2.5H3.75C1.625 2.5 0 4.125 0 6.25V7.5H25V6.25C25 4.125 23.375 2.5 21.25 2.5ZM0 21.25C0 23.375 1.625 25 3.75 25H21.25C23.375 25 25 23.375 25 21.25V10H0V21.25ZM18.75 12.5C19.5 12.5 20 13 20 13.75C20 14.5 19.5 15 18.75 15C18 15 17.5 14.5 17.5 13.75C17.5 13 18 12.5 18.75 12.5ZM18.75 17.5C19.5 17.5 20 18 20 18.75C20 19.5 19.5 20 18.75 20C18 20 17.5 19.5 17.5 18.75C17.5 18 18 17.5 18.75 17.5ZM12.5 12.5C13.25 12.5 13.75 13 13.75 13.75C13.75 14.5 13.25 15 12.5 15C11.75 15 11.25 14.5 11.25 13.75C11.25 13 11.75 12.5 12.5 12.5ZM12.5 17.5C13.25 17.5 13.75 18 13.75 18.75C13.75 19.5 13.25 20 12.5 20C11.75 20 11.25 19.5 11.25 18.75C11.25 18 11.75 17.5 12.5 17.5ZM6.25 12.5C7 12.5 7.5 13 7.5 13.75C7.5 14.5 7 15 6.25 15C5.5 15 5 14.5 5 13.75C5 13 5.5 12.5 6.25 12.5ZM6.25 17.5C7 17.5 7.5 18 7.5 18.75C7.5 19.5 7 20 6.25 20C5.5 20 5 19.5 5 18.75C5 18 5.5 17.5 6.25 17.5Z" fill="#199730"/>
</svg>
