<svg width="56" height="56" viewBox="0 0 56 56" fill="none" xmlns="http://www.w3.org/2000/svg">
<circle opacity="0.4" cx="28" cy="28" r="28" fill="#208B2B"/>
<circle cx="28" cy="28" r="24" fill="#208B2B"/>
<path d="M17 18.2833C17 17.9167 17.1222 17.6111 17.3667 17.3667C17.6111 17.1222 17.9167 17 18.2833 17L23.2333 17C23.5185 17 23.7683 17.0917 23.9826 17.275C24.196 17.4583 24.3333 17.6926 24.3944 17.9778L25.25 22.1944C25.2907 22.4796 25.2655 22.7701 25.1742 23.0659C25.0821 23.3609 24.9444 23.6 24.7611 23.7833L21.8889 26.6556C22.8259 28.2037 23.9361 29.6194 25.2194 30.9028C26.5028 32.1861 27.8778 33.2556 29.3444 34.1111L32.3389 31.1778C32.5222 30.9944 32.7312 30.8771 32.9659 30.8258C33.1997 30.7753 33.4593 30.7704 33.7444 30.8111L38.0222 31.6056C38.3074 31.6463 38.5417 31.7787 38.725 32.0028C38.9083 32.2269 39 32.4815 39 32.7667L39 37.7167C39 38.0833 38.8778 38.3889 38.6333 38.6333C38.3889 38.8778 38.0833 39 37.7167 39C35.0889 39 32.5275 38.4142 30.0326 37.2424C27.5368 36.0716 25.3266 34.5234 23.402 32.598C21.4766 30.6734 19.9284 28.4636 18.7576 25.9687C17.5859 23.4729 17 20.9111 17 18.2833Z" fill="white"/>
</svg>
