<svg width="19" height="24" viewBox="0 0 19 24" fill="none" xmlns="http://www.w3.org/2000/svg">
<path d="M10.2308 6.75V0H5.11538C4.53395 0 3.97633 0.237053 3.56519 0.65901C3.15405 1.08097 2.92308 1.65326 2.92308 2.25V18.75C2.92308 19.3467 3.15405 19.919 3.56519 20.341C3.97633 20.7629 4.53395 21 5.11538 21H16.8077C17.3891 21 17.9467 20.7629 18.3579 20.341C18.769 19.919 19 19.3467 19 18.75V9H12.4231C11.8416 9 11.284 8.76295 10.8729 8.34099C10.4617 7.91903 10.2308 7.34674 10.2308 6.75ZM11.6923 6.75V0.375L18.6346 7.5H12.4231C12.2293 7.5 12.0434 7.42098 11.9063 7.28033C11.7693 7.13968 11.6923 6.94891 11.6923 6.75ZM0 4.5C0 4.10218 0.153983 3.72064 0.428075 3.43934C0.702167 3.15804 1.07391 3 1.46154 3V18.75C1.46154 19.7446 1.8465 20.6984 2.53173 21.4016C3.21695 22.1049 4.14632 22.5 5.11538 22.5H16.0769C16.0769 22.8978 15.9229 23.2794 15.6488 23.5607C15.3748 23.842 15.003 24 14.6154 24H5.18554C3.81025 24 2.49129 23.4393 1.51881 22.4412C0.546332 21.4432 0 20.0895 0 18.678V4.5Z" fill="white"/>
</svg>
