<svg width="14" height="17" viewBox="0 0 14 17" fill="none" xmlns="http://www.w3.org/2000/svg">
<path d="M9.02527 8.02442C10.8303 8.02442 12.2744 9.4834 12.2744 11.3071C12.2744 11.9491 12.0939 12.5546 11.7762 13.0579L14 15.3193L12.9964 16.3333L10.7437 14.0938C10.2455 14.4075 9.65343 14.5898 9.02527 14.5898C7.22022 14.5898 5.77617 13.1309 5.77617 11.3071C5.77617 9.4834 7.22022 8.02442 9.02527 8.02442ZM9.02527 9.4834C8.54654 9.4834 8.08742 9.67554 7.74891 10.0176C7.41039 10.3596 7.22022 10.8234 7.22022 11.3071C7.22022 11.7908 7.41039 12.2547 7.74891 12.5967C8.08742 12.9387 8.54654 13.1309 9.02527 13.1309C9.504 13.1309 9.96312 12.9387 10.3016 12.5967C10.6402 12.2547 10.8303 11.7908 10.8303 11.3071C10.8303 10.8234 10.6402 10.3596 10.3016 10.0176C9.96312 9.67554 9.504 9.4834 9.02527 9.4834ZM11.5523 5.10645H1.44404V13.1309H4.69314C4.91697 13.678 5.24188 14.1667 5.63899 14.5898H1.44404C1.06106 14.5898 0.693761 14.4361 0.42295 14.1625C0.15214 13.8889 0 13.5178 0 13.1309V2.91797C0 2.10823 0.642599 1.45898 1.44404 1.45898H2.16607V0H3.61011V1.45898H9.38628V0H10.8303V1.45898H11.5523C11.9353 1.45898 12.3026 1.6127 12.5734 1.88631C12.8443 2.15992 12.9964 2.53102 12.9964 2.91797V8.77579C12.6354 8.1849 12.13 7.68885 11.5523 7.29492V5.10645Z" fill="#208B2B"/>
</svg>
