<svg width="18" height="18" viewBox="0 0 18 18" fill="none" xmlns="http://www.w3.org/2000/svg">
<path d="M9 0C13.9707 0 18 4.0293 18 9C18 13.9707 13.9707 18 9 18C4.0293 18 0 13.9707 0 9C0 4.0293 4.0293 0 9 0ZM8.3637 5.8176L5.8176 8.3637C5.64888 8.53247 5.55409 8.76135 5.55409 9C5.55409 9.23865 5.64888 9.46752 5.8176 9.6363L8.3637 12.1824C8.53247 12.3511 8.76135 12.4459 9 12.4459C9.23865 12.4459 9.46752 12.3511 9.6363 12.1824L12.1824 9.6363C12.3511 9.46752 12.4459 9.23865 12.4459 9C12.4459 8.76135 12.3511 8.53247 12.1824 8.3637L9.6363 5.8176C9.46752 5.64888 9.23865 5.55409 9 5.55409C8.76135 5.55409 8.53247 5.64888 8.3637 5.8176Z" fill="#208B2B"/>
</svg>
