<svg width="16" height="18" viewBox="0 0 16 18" fill="none" xmlns="http://www.w3.org/2000/svg">
<path d="M12.4444 0C11.9556 0 11.5556 0.405 11.5556 0.9V1.8H4.44444V0.9C4.44444 0.405 4.04444 0 3.55556 0C3.06667 0 2.66667 0.405 2.66667 0.9V1.8H1.77778C0.791111 1.8 0.00888888 2.61 0.00888888 3.6L0 16.2C0 16.6774 0.187301 17.1352 0.520699 17.4728C0.854097 17.8104 1.30628 18 1.77778 18H14.2222C15.2 18 16 17.19 16 16.2V3.6C16 2.61 15.2 1.8 14.2222 1.8H13.3333V0.9C13.3333 0.405 12.9333 0 12.4444 0ZM14.2222 16.2H1.77778V7.2H14.2222V16.2ZM7.11111 9.9C7.11111 9.405 7.51111 9 8 9C8.48889 9 8.88889 9.405 8.88889 9.9C8.88889 10.395 8.48889 10.8 8 10.8C7.51111 10.8 7.11111 10.395 7.11111 9.9ZM3.55556 9.9C3.55556 9.405 3.95556 9 4.44444 9C4.93333 9 5.33333 9.405 5.33333 9.9C5.33333 10.395 4.93333 10.8 4.44444 10.8C3.95556 10.8 3.55556 10.395 3.55556 9.9ZM10.6667 9.9C10.6667 9.405 11.0667 9 11.5556 9C12.0444 9 12.4444 9.405 12.4444 9.9C12.4444 10.395 12.0444 10.8 11.5556 10.8C11.0667 10.8 10.6667 10.395 10.6667 9.9ZM7.11111 13.5C7.11111 13.005 7.51111 12.6 8 12.6C8.48889 12.6 8.88889 13.005 8.88889 13.5C8.88889 13.995 8.48889 14.4 8 14.4C7.51111 14.4 7.11111 13.995 7.11111 13.5ZM3.55556 13.5C3.55556 13.005 3.95556 12.6 4.44444 12.6C4.93333 12.6 5.33333 13.005 5.33333 13.5C5.33333 13.995 4.93333 14.4 4.44444 14.4C3.95556 14.4 3.55556 13.995 3.55556 13.5ZM10.6667 13.5C10.6667 13.005 11.0667 12.6 11.5556 12.6C12.0444 12.6 12.4444 13.005 12.4444 13.5C12.4444 13.995 12.0444 14.4 11.5556 14.4C11.0667 14.4 10.6667 13.995 10.6667 13.5Z" fill="#208B2B"/>
</svg>
