<svg width="19" height="14" viewBox="0 0 19 14" fill="none" xmlns="http://www.w3.org/2000/svg">
<path d="M0 14V11.55C0 11.0542 0.126091 10.5983 0.378273 10.1824C0.629879 9.76704 0.964394 9.45 1.38182 9.23125C2.27424 8.77917 3.18106 8.43996 4.10227 8.21362C5.02349 7.98787 5.95909 7.875 6.90909 7.875C7.85909 7.875 8.7947 7.98787 9.71591 8.21362C10.6371 8.43996 11.5439 8.77917 12.4364 9.23125C12.8538 9.45 13.1883 9.76704 13.4399 10.1824C13.6921 10.5983 13.8182 11.0542 13.8182 11.55V14H0ZM15.5455 14V11.375C15.5455 10.7333 15.3693 10.117 15.0169 9.52612C14.664 8.93579 14.1636 8.42917 13.5159 8.00625C14.25 8.09375 14.9409 8.24308 15.5886 8.45425C16.2364 8.666 16.8409 8.925 17.4023 9.23125C17.9205 9.52292 18.3163 9.84725 18.5898 10.2042C18.8633 10.5618 19 10.9521 19 11.375V14H15.5455ZM6.90909 7C5.95909 7 5.14583 6.65729 4.46932 5.97187C3.7928 5.28646 3.45455 4.4625 3.45455 3.5C3.45455 2.5375 3.7928 1.71354 4.46932 1.02813C5.14583 0.342708 5.95909 0 6.90909 0C7.85909 0 8.67235 0.342708 9.34886 1.02813C10.0254 1.71354 10.3636 2.5375 10.3636 3.5C10.3636 4.4625 10.0254 5.28646 9.34886 5.97187C8.67235 6.65729 7.85909 7 6.90909 7ZM15.5455 3.5C15.5455 4.4625 15.2072 5.28646 14.5307 5.97187C13.8542 6.65729 13.0409 7 12.0909 7C11.9326 7 11.7311 6.98192 11.4864 6.94575C11.2417 6.909 11.0402 6.86875 10.8818 6.825C11.2705 6.35833 11.569 5.84062 11.7774 5.27187C11.9864 4.70312 12.0909 4.1125 12.0909 3.5C12.0909 2.8875 11.9864 2.29688 11.7774 1.72812C11.569 1.15937 11.2705 0.641667 10.8818 0.175C11.0833 0.102083 11.2848 0.0545418 11.4864 0.0323752C11.6879 0.0107918 11.8894 0 12.0909 0C13.0409 0 13.8542 0.342708 14.5307 1.02813C15.2072 1.71354 15.5455 2.5375 15.5455 3.5Z" fill="#208B2B"/>
</svg>
