<svg width="17" height="18" viewBox="0 0 17 18" fill="none" xmlns="http://www.w3.org/2000/svg">
<path d="M8.5 17.819C7.33833 17.819 6.24042 17.5957 5.20625 17.1492C4.17208 16.7032 3.2691 16.094 2.4973 15.3217C1.72493 14.5499 1.11577 13.6469 0.6698 12.6127C0.223267 11.5786 0 10.4806 0 9.31897C0 8.14314 0.223267 7.04182 0.6698 6.01502C1.11577 4.98765 1.72493 4.08807 2.4973 3.31627C3.2691 2.5439 4.17208 1.93445 5.20625 1.48792C6.24042 1.04195 7.33833 0.81897 8.5 0.81897C9.67583 0.81897 10.7772 1.04195 11.804 1.48792C12.8313 1.93445 13.7309 2.5439 14.5027 3.31627C15.2751 4.08807 15.8842 4.98765 16.3302 6.01502C16.7767 7.04182 17 8.14314 17 9.31897C17 10.4806 16.7767 11.5786 16.3302 12.6127C15.8842 13.6469 15.2751 14.5499 14.5027 15.3217C13.7309 16.094 12.8313 16.7032 11.804 17.1492C10.7772 17.5957 9.67583 17.819 8.5 17.819ZM8.5 16.0765C8.86833 15.5665 9.18708 15.0352 9.45625 14.4827C9.72542 13.9302 9.945 13.3423 10.115 12.719H6.885C7.055 13.3423 7.27458 13.9302 7.54375 14.4827C7.81292 15.0352 8.13167 15.5665 8.5 16.0765ZM6.29 15.7365C6.035 15.269 5.81202 14.7836 5.62105 14.2804C5.42952 13.7778 5.27 13.2573 5.1425 12.719H2.635C3.04583 13.4273 3.55923 14.0436 4.1752 14.5677C4.79173 15.0919 5.49667 15.4815 6.29 15.7365ZM10.71 15.7365C11.5033 15.4815 12.208 15.0919 12.8239 14.5677C13.4405 14.0436 13.9542 13.4273 14.365 12.719H11.8575C11.73 13.2573 11.5708 13.7778 11.3798 14.2804C11.1883 14.7836 10.965 15.269 10.71 15.7365ZM1.9125 11.019H4.8025C4.76 10.7356 4.72798 10.4557 4.70645 10.1792C4.68548 9.9032 4.675 9.61647 4.675 9.31897C4.675 9.02147 4.68548 8.73474 4.70645 8.45877C4.72798 8.18224 4.76 7.9023 4.8025 7.61897H1.9125C1.84167 7.9023 1.7884 8.18224 1.7527 8.45877C1.71757 8.73474 1.7 9.02147 1.7 9.31897C1.7 9.61647 1.71757 9.9032 1.7527 10.1792C1.7884 10.4557 1.84167 10.7356 1.9125 11.019ZM6.5025 11.019H10.4975C10.54 10.7356 10.572 10.4557 10.5936 10.1792C10.6145 9.9032 10.625 9.61647 10.625 9.31897C10.625 9.02147 10.6145 8.73474 10.5936 8.45877C10.572 8.18224 10.54 7.9023 10.4975 7.61897H6.5025C6.46 7.9023 6.42827 8.18224 6.4073 8.45877C6.38577 8.73474 6.375 9.02147 6.375 9.31897C6.375 9.61647 6.38577 9.9032 6.4073 10.1792C6.42827 10.4557 6.46 10.7356 6.5025 11.019ZM12.1975 11.019H15.0875C15.1583 10.7356 15.2116 10.4557 15.2473 10.1792C15.2824 9.9032 15.3 9.61647 15.3 9.31897C15.3 9.02147 15.2824 8.73474 15.2473 8.45877C15.2116 8.18224 15.1583 7.9023 15.0875 7.61897H12.1975C12.24 7.9023 12.2717 8.18224 12.2927 8.45877C12.3142 8.73474 12.325 9.02147 12.325 9.31897C12.325 9.61647 12.3142 9.9032 12.2927 10.1792C12.2717 10.4557 12.24 10.7356 12.1975 11.019ZM11.8575 5.91897H14.365C13.9542 5.21064 13.4405 4.59439 12.8239 4.07022C12.208 3.54605 11.5033 3.15647 10.71 2.90147C10.965 3.36897 11.1883 3.85404 11.3798 4.35667C11.5708 4.85987 11.73 5.38064 11.8575 5.91897ZM6.885 5.91897H10.115C9.945 5.29564 9.72542 4.70772 9.45625 4.15522C9.18708 3.60272 8.86833 3.07147 8.5 2.56147C8.13167 3.07147 7.81292 3.60272 7.54375 4.15522C7.27458 4.70772 7.055 5.29564 6.885 5.91897ZM2.635 5.91897H5.1425C5.27 5.38064 5.42952 4.85987 5.62105 4.35667C5.81202 3.85404 6.035 3.36897 6.29 2.90147C5.49667 3.15647 4.79173 3.54605 4.1752 4.07022C3.55923 4.59439 3.04583 5.21064 2.635 5.91897Z" fill="#208B2B"/>
</svg>
