<svg width="15" height="15" viewBox="0 0 15 15" fill="none" xmlns="http://www.w3.org/2000/svg">
<path d="M9.71373 1.55402L5.54475 0.0948713C5.19455 -0.0301982 4.81101 -0.0301982 4.46081 0.0865334L1.13396 1.20382C0.458588 1.43728 0 2.07097 0 2.78803V12.6685C0 13.8442 1.17565 14.6446 2.26793 14.2194L4.71095 13.2689C4.89439 13.1938 5.10284 13.1938 5.28627 13.2605L9.45525 14.7197C9.80545 14.8447 10.189 14.8447 10.5392 14.728L13.866 13.6107C14.5414 13.3856 15 12.7436 15 12.0265V2.14601C15 0.970358 13.8243 0.169913 12.7321 0.595149L10.2891 1.54568C10.1056 1.61238 9.9055 1.62072 9.71373 1.55402ZM10.0056 13.1521L5.00278 11.3928V1.66241L10.0056 3.42172V13.1521Z" fill="white"/>
</svg>
