<svg width="8" height="12" viewBox="0 0 8 12" fill="none" xmlns="http://www.w3.org/2000/svg">
<path d="M4 0C1.78857 0 0 1.878 0 4.2C0 7.35 4 12 4 12C4 12 8 7.35 8 4.2C8 1.878 6.21143 0 4 0ZM4 5.7C3.62112 5.7 3.25776 5.54197 2.98985 5.26066C2.72194 4.97936 2.57143 4.59783 2.57143 4.2C2.57143 3.80218 2.72194 3.42064 2.98985 3.13934C3.25776 2.85804 3.62112 2.7 4 2.7C4.37888 2.7 4.74224 2.85804 5.01015 3.13934C5.27806 3.42064 5.42857 3.80218 5.42857 4.2C5.42857 4.59783 5.27806 4.97936 5.01015 5.26066C4.74224 5.54197 4.37888 5.7 4 5.7Z" fill="#3F3F3F"/>
</svg>
