<svg width="13" height="16" viewBox="0 0 13 16" fill="none" xmlns="http://www.w3.org/2000/svg">
<path d="M6.5 12.1905C6.93098 12.1905 7.3443 12.0299 7.64905 11.7442C7.95379 11.4584 8.125 11.0708 8.125 10.6667C8.125 10.2625 7.95379 9.87494 7.64905 9.58917C7.3443 9.3034 6.93098 9.14286 6.5 9.14286C6.06902 9.14286 5.6557 9.3034 5.35095 9.58917C5.04621 9.87494 4.875 10.2625 4.875 10.6667C4.875 11.0708 5.04621 11.4584 5.35095 11.7442C5.6557 12.0299 6.06902 12.1905 6.5 12.1905ZM11.375 5.33333C11.806 5.33333 12.2193 5.49388 12.524 5.77965C12.8288 6.06542 13 6.453 13 6.85714V14.4762C13 14.8803 12.8288 15.2679 12.524 15.5537C12.2193 15.8395 11.806 16 11.375 16H1.625C1.19402 16 0.780698 15.8395 0.475951 15.5537C0.171205 15.2679 0 14.8803 0 14.4762V6.85714C0 6.453 0.171205 6.06542 0.475951 5.77965C0.780698 5.49388 1.19402 5.33333 1.625 5.33333H2.4375V3.80952C2.4375 2.79918 2.86551 1.83021 3.62738 1.11578C4.38925 0.401359 5.42256 0 6.5 0C7.03349 0 7.56177 0.0985363 8.05465 0.289983C8.54754 0.481429 8.99538 0.762037 9.37262 1.11578C9.74986 1.46953 10.0491 1.88949 10.2533 2.35168C10.4574 2.81387 10.5625 3.30925 10.5625 3.80952V5.33333H11.375ZM6.5 1.52381C5.85353 1.52381 5.23355 1.76463 4.77643 2.19328C4.31931 2.62193 4.0625 3.20331 4.0625 3.80952V5.33333H8.9375V3.80952C8.9375 3.20331 8.68069 2.62193 8.22357 2.19328C7.76645 1.76463 7.14647 1.52381 6.5 1.52381Z" fill="#109B20"/>
</svg>
