<svg width="186" height="31" viewBox="0 0 186 31" fill="none" xmlns="http://www.w3.org/2000/svg">
<path fill-rule="evenodd" clip-rule="evenodd" d="M17.9947 1.1285C18.0681 0.859986 17.9483 0.263739 17.8594 0C18.2965 0.355917 18.5086 0.946011 18.3519 1.5214C18.2348 1.95126 17.9366 2.2829 17.5612 2.45744V2.32773H16.5313V2.53511C15.9877 2.37738 15.6025 1.93323 15.4964 1.41421C15.6743 1.59932 16.0133 1.93312 16.2603 2.00066C17.0153 2.20867 17.7901 1.87966 17.9947 1.1285ZM16.5313 2.53511V3.19989H16.3145V3.96303H16.5313V5.80474H15.6099V6.85207H15.7725V8.75992H15.9893V13.1752L14.2549 13.8839V15.4647H14.9595V18.8988L10.7859 17.6451V20.4796L15.6641 22.1694C16.1249 21.7987 16.6347 21.4378 17.1601 21.0658C17.8707 20.5627 18.6101 20.0393 19.2956 19.4439V15.4647H19.7292V13.8839L18.1032 13.1752V8.75992H18.2658V6.85207H18.4284V5.80474H17.5612V3.96303H17.778V3.19989H17.5612V2.45744C17.2567 2.599 16.9015 2.63722 16.551 2.54068L16.5313 2.53511ZM3.14349 18.9533V21.6788L10.4065 20.4796V17.6451L3.14349 18.9533ZM3.14349 22.2784L3.19769 27.5659C6.18963 25.8216 9.25023 24.5679 10.4065 24.1863V20.9157L3.14349 22.2784ZM10.7859 24.1318V21.0792L15.2847 22.4965L14.0381 24.1318C13.0082 24.0773 11.7074 24.0228 10.7859 24.1318ZM25.6509 10.9701C25.7918 10.9626 25.9146 11.0714 25.8996 11.2125C25.8633 11.5541 25.7134 11.8787 25.4679 12.1381C25.1881 12.4337 24.8051 12.6225 24.3908 12.6718V12.5756H23.9572V12.6718C23.6109 12.6307 23.2831 12.4916 23.019 12.2695C22.7448 12.0388 22.5572 11.7336 22.4795 11.3993C22.4471 11.2597 22.5581 11.136 22.7005 11.1283C22.8414 11.1208 22.9591 11.2307 23.0003 11.3664C23.0634 11.5738 23.1876 11.7621 23.361 11.908C23.6026 12.1113 23.9199 12.2157 24.2431 12.1984C24.5663 12.181 24.869 12.0434 25.0846 11.8156C25.2384 11.6531 25.3388 11.4543 25.3771 11.2431C25.4026 11.102 25.5085 10.9777 25.6509 10.9701ZM23.9572 12.8309V12.6718C24.061 12.6841 24.1664 12.6877 24.2723 12.682C24.312 12.6799 24.3516 12.6764 24.3908 12.6718V12.8309C24.323 12.8068 24.2501 12.7936 24.1741 12.7936C24.098 12.7936 24.025 12.8068 23.9572 12.8309ZM23.9572 14.0647C23.7046 13.9748 23.5236 13.7326 23.5236 13.4478C23.5236 13.163 23.7046 12.9207 23.9572 12.8309V14.0647ZM24.3908 14.0647C24.323 14.0888 24.2501 14.1019 24.1741 14.1019C24.098 14.1019 24.025 14.0888 23.9572 14.0647V14.6786C23.6436 14.7723 23.415 15.0644 23.415 15.4102C23.415 15.756 23.6436 16.048 23.9572 16.1418V16.6094H24.3908V16.1417C24.7042 16.0478 24.9326 15.7558 24.9326 15.4102C24.9326 15.0646 24.7042 14.7726 24.3908 14.6787V14.0647ZM24.3908 14.0647C24.6435 13.9749 24.8245 13.7326 24.8245 13.4478C24.8245 13.1629 24.6435 12.9206 24.3908 12.8309V14.0647ZM24.3908 14.6787C24.3221 14.6581 24.2492 14.647 24.1738 14.647C24.0985 14.647 24.0258 14.6581 23.9572 14.6786V16.1418C24.0258 16.1623 24.0985 16.1733 24.1738 16.1733C24.2492 16.1733 24.3221 16.1623 24.3908 16.1417V14.6787ZM35.8275 30.2914C35.972 27.9293 35.2313 24.1318 30.4073 21.0792L26.6674 18.8443C26.1976 18.4809 25.2039 17.5252 24.9871 16.6094H23.5237C23.4695 17.0273 23.1551 17.994 22.3312 18.5173C20.9792 19.376 19.9595 19.9923 19.1525 20.48C17.7596 21.3218 17.0005 21.7806 16.2606 22.442C16.0816 22.602 15.922 22.7431 15.7786 22.8699C15.1403 23.4342 14.8212 23.7164 14.5262 24.1318C21.1388 24.1318 29.2366 24.4916 35.8275 30.2914ZM0 31C6.75667 27.1589 19.8435 22.0775 35.7138 30.7992C33.2747 28.6369 25.7318 24.5823 16.409 24.9747C10.135 24.9747 4.89985 26.3339 0 31ZM4.16005 22.663L5.40097 22.4291L5.45466 22.7171L4.21374 22.951L4.16005 22.663ZM9.01039 21.7622L7.76947 21.9962L7.82316 22.2842L9.06408 22.0502L9.01039 21.7622ZM12.1164 21.8598L13.3379 22.1813L13.2641 22.4647L12.0427 22.1433L12.1164 21.8598ZM15.9125 14.2415H15.539V14.9928H15.9125V14.2415ZM16.1217 6.42784H16.3458V6.87863H16.1217V6.42784ZM16.809 14.2415H16.4354V14.9928H16.809V14.2415ZM16.6595 6.42784H16.8837V6.87863H16.6595V6.42784ZM17.6307 14.2415H17.2572V14.9928H17.6307V14.2415ZM17.1526 6.42784H17.3767V6.87863H17.1526V6.42784ZM18.4525 14.2415H18.079V14.9928H18.4525V14.2415ZM17.6457 6.42784H17.8698V6.87863H17.6457V6.42784ZM60.9689 23.0105H64.5711L65.1125 24.2824C65.2529 24.6135 65.3281 24.8016 65.3381 24.8468C65.3682 24.9421 65.3833 25.0349 65.3833 25.1252C65.3833 25.2758 65.3281 25.3911 65.2178 25.4714C65.0574 25.5818 64.7791 25.637 64.3831 25.637H64.18V25.9154H69.1133V25.637C68.8025 25.6119 68.5618 25.5216 68.3913 25.3661C68.1657 25.1604 67.8775 24.6612 67.5265 23.8685L63.8491 15.5H63.7063L60.0589 23.6427C59.713 24.4203 59.4222 24.9346 59.1866 25.1854C58.951 25.4313 58.6502 25.5818 58.2842 25.637V25.9154H61.6758V25.637C61.1444 25.5968 60.811 25.5366 60.6756 25.4564C60.445 25.3209 60.3297 25.1102 60.3297 24.8242C60.3297 24.6085 60.3999 24.3351 60.5402 24.0039L60.9689 23.0105ZM62.7963 18.9392L64.3154 22.4537H61.2321L62.7963 18.9392ZM50.388 24.1695V21.0087H53.9901V24.1695C53.9901 24.6812 53.9626 24.9973 53.9074 25.1177C53.8322 25.2883 53.7294 25.4087 53.5991 25.4789C53.4236 25.5843 53.1855 25.637 52.8847 25.637H52.5538V25.9154H57.8781V25.637H57.5472C57.2614 25.637 57.0333 25.5893 56.8629 25.494C56.6924 25.3937 56.5796 25.2783 56.5244 25.1478C56.4693 25.0174 56.4417 24.6913 56.4417 24.1695V17.4567C56.4417 16.9449 56.4693 16.6288 56.5244 16.5084C56.5996 16.3379 56.7024 16.2174 56.8328 16.1472C57.0082 16.0418 57.2464 15.9892 57.5472 15.9892H57.8781V15.7107H52.5538V15.9892H52.8847C53.1704 15.9892 53.3985 16.0393 53.569 16.1397C53.7395 16.235 53.8523 16.3479 53.9074 16.4783C53.9626 16.6088 53.9901 16.9349 53.9901 17.4567V20.3465H50.388V17.4567C50.388 16.9449 50.4155 16.6288 50.4707 16.5084C50.5459 16.3379 50.6487 16.2174 50.779 16.1472C50.9595 16.0418 51.1976 15.9892 51.4934 15.9892H51.8318V15.7107H46.5V15.9892H46.8384C47.1242 15.9892 47.3498 16.0393 47.5152 16.1397C47.6857 16.235 47.7985 16.3479 47.8536 16.4783C47.9088 16.6088 47.9364 16.9349 47.9364 17.4567V24.1695C47.9364 24.6812 47.9088 24.9973 47.8536 25.1177C47.7835 25.2883 47.6832 25.4087 47.5528 25.4789C47.3723 25.5843 47.1342 25.637 46.8384 25.637H46.5V25.9154H51.8318V25.637H51.4934C51.2077 25.637 50.9795 25.5893 50.8091 25.494C50.6436 25.3937 50.5308 25.2783 50.4707 25.1478C50.4155 25.0174 50.388 24.6913 50.388 24.1695ZM73.3848 21.2646V24.1243C73.3848 24.6762 73.4174 25.0249 73.4825 25.1704C73.5527 25.3109 73.673 25.4238 73.8435 25.509C74.014 25.5943 74.3323 25.637 74.7986 25.637V25.9154H69.5795V25.637C70.0508 25.637 70.3692 25.5943 70.5346 25.509C70.7051 25.4187 70.8229 25.3033 70.8881 25.1629C70.9582 25.0224 70.9933 24.6762 70.9933 24.1243V17.5018C70.9933 16.9499 70.9582 16.6038 70.8881 16.4633C70.8229 16.3178 70.7051 16.2024 70.5346 16.1171C70.3642 16.0318 70.0458 15.9892 69.5795 15.9892V15.7107H74.3173C75.5506 15.7107 76.453 15.796 77.0246 15.9666C77.5961 16.1372 78.0623 16.4532 78.4233 16.9148C78.7843 17.3714 78.9648 17.9082 78.9648 18.5253C78.9648 19.2779 78.694 19.9 78.1526 20.3916C77.8067 20.7027 77.3229 20.936 76.7012 21.0915L79.1528 24.5458C79.4736 24.9923 79.7018 25.2707 79.8371 25.3811C80.0413 25.5356 80.2776 25.6208 80.5461 25.6367C80.9111 25.5812 81.2113 25.4308 81.4464 25.1854C81.6821 24.9346 81.9729 24.4203 82.3188 23.6427L85.9661 15.5H86.109L89.7864 23.8685C90.1373 24.6612 90.4256 25.1604 90.6512 25.3661C90.8216 25.5216 91.0623 25.6119 91.3731 25.637V25.9154H86.4399V25.637H86.6429C87.039 25.637 87.3172 25.5818 87.4777 25.4714C87.5879 25.3911 87.6431 25.2758 87.6431 25.1252C87.6431 25.0349 87.6281 24.9421 87.598 24.8468C87.588 24.8016 87.5127 24.6135 87.3724 24.2824L86.8309 23.0105H83.2287L82.8001 24.0039C82.6597 24.3351 82.5895 24.6085 82.5895 24.8242C82.5895 25.1102 82.7048 25.3209 82.9354 25.4564C83.0708 25.5366 83.4042 25.5968 83.9356 25.637V25.9154H80.5515H80.544H77.3404L74.0541 21.2646H73.3848ZM73.3848 16.2601V20.7303H73.8134C74.5103 20.7303 75.0317 20.6676 75.3776 20.5422C75.7236 20.4117 75.9943 20.1809 76.1898 19.8498C76.3904 19.5137 76.4906 19.0772 76.4906 18.5403C76.4906 17.7627 76.3076 17.1882 75.9416 16.817C75.5807 16.4457 74.9966 16.2601 74.1894 16.2601H73.3848ZM85.0561 18.9392L86.5752 22.4537H83.4919L85.0561 18.9392ZM98.8933 22.4386L101.661 15.7107H105.812V15.9892H105.481C105.18 15.9892 104.94 16.0418 104.759 16.1472C104.634 16.2174 104.533 16.3353 104.458 16.5009C104.403 16.6213 104.376 16.9349 104.376 17.4416V24.1695C104.376 24.6913 104.403 25.0174 104.458 25.1478C104.513 25.2783 104.626 25.3937 104.797 25.494C104.967 25.5893 105.195 25.637 105.481 25.637H105.812V25.9154H100.488V25.637H100.819C101.119 25.637 101.36 25.5843 101.54 25.4789C101.666 25.4087 101.766 25.2883 101.841 25.1177C101.896 24.9973 101.924 24.6812 101.924 24.1695V16.6063L98.0135 25.9154H97.833L93.8623 16.674V23.8609C93.8623 24.3626 93.8748 24.6712 93.8999 24.7866C93.9651 25.0374 94.1055 25.2431 94.321 25.4037C94.5416 25.5592 94.8851 25.637 95.3513 25.637V25.9154H91.8619V25.637H91.9672C92.1928 25.642 92.4034 25.6069 92.5989 25.5316C92.7944 25.4514 92.9423 25.346 93.0426 25.2156C93.1429 25.0851 93.2206 24.902 93.2757 24.6662C93.2858 24.611 93.2908 24.3551 93.2908 23.8986V17.4416C93.2908 16.9248 93.2632 16.6038 93.2081 16.4783C93.1529 16.3479 93.0401 16.235 92.8696 16.1397C92.6992 16.0393 92.4711 15.9892 92.1853 15.9892H91.8619V15.7107H96.0281L98.8933 22.4386ZM108.903 23.0105H112.505L113.046 24.2824C113.187 24.6135 113.262 24.8016 113.272 24.8468C113.302 24.9421 113.317 25.0349 113.317 25.1252C113.317 25.2758 113.262 25.3911 113.152 25.4714C112.991 25.5818 112.713 25.637 112.317 25.637H112.114V25.9154H117.047V25.637C116.736 25.6119 116.496 25.5216 116.325 25.3661C116.1 25.1604 115.811 24.6612 115.46 23.8685L111.783 15.5H111.64L107.993 23.6427C107.647 24.4203 107.356 24.9346 107.12 25.1854C106.885 25.4313 106.584 25.5818 106.218 25.637V25.9154H109.61V25.637C109.078 25.5968 108.745 25.5366 108.609 25.4564C108.379 25.3209 108.264 25.1102 108.264 24.8242C108.264 24.6085 108.334 24.3351 108.474 24.0039L108.903 23.0105ZM110.73 18.9392L112.249 22.4537H109.166L110.73 18.9392ZM126.763 15.7107V15.9892C126.427 16.0343 126.169 16.1322 125.989 16.2827C125.738 16.4934 125.342 17.0678 124.8 18.006L122.59 21.7011V24.1695C122.59 24.6963 122.617 25.0249 122.672 25.1553C122.727 25.2808 122.835 25.3937 122.996 25.494C123.161 25.5893 123.379 25.637 123.65 25.637H124.221V25.9154H118.499V25.637H119.032C119.333 25.637 119.571 25.5843 119.747 25.4789C119.877 25.4087 119.98 25.2883 120.055 25.1177C120.11 24.9973 120.138 24.6812 120.138 24.1695V22.1225L117.739 17.7502C117.263 16.8872 116.927 16.3805 116.731 16.23C116.536 16.0745 116.275 15.9942 115.949 15.9892V15.7107H120.837V15.9892H120.619C120.323 15.9892 120.115 16.0318 119.995 16.1171C119.88 16.2024 119.822 16.2927 119.822 16.388C119.822 16.5686 120.023 17.0227 120.424 17.7502L122.266 21.1291L124.101 18.0512C124.557 17.2986 124.785 16.7994 124.785 16.5536C124.785 16.4181 124.72 16.3052 124.59 16.2149C124.419 16.0895 124.106 16.0142 123.65 15.9892V15.7107H126.763ZM135.81 22.0397L130.779 15.7107H127.162V15.9892C127.473 15.9992 127.711 16.0469 127.876 16.1322C128.042 16.2174 128.232 16.3955 128.448 16.6665L128.666 16.9374V24.1394C128.666 24.6812 128.556 25.065 128.335 25.2908C128.114 25.5166 127.723 25.632 127.162 25.637V25.9154H130.779V25.637H130.538C130.192 25.637 129.884 25.5341 129.613 25.3284C129.348 25.1227 129.215 24.7264 129.215 24.1394V17.6523L136.111 26.1487H136.367V17.6523C136.367 17.1707 136.407 16.832 136.487 16.6364C136.572 16.4357 136.687 16.2927 136.833 16.2074C136.983 16.1171 137.274 16.0444 137.705 15.9892V15.7107H134.336V15.9892C134.903 15.9791 135.306 16.1196 135.547 16.4106C135.722 16.6263 135.81 17.0402 135.81 17.6523V22.0397ZM151.354 15.7107V18.4726H151.084C150.923 17.8354 150.745 17.3789 150.55 17.103C150.354 16.822 150.086 16.5987 149.745 16.4332C149.555 16.3429 149.221 16.2977 148.745 16.2977H147.985V24.1695C147.985 24.6913 148.013 25.0174 148.068 25.1478C148.128 25.2783 148.241 25.3937 148.406 25.494C148.577 25.5893 148.808 25.637 149.098 25.637H149.437V25.9154H144.097V25.637H144.436C144.732 25.637 144.97 25.5843 145.15 25.4789C145.281 25.4087 145.383 25.2883 145.459 25.1177C145.514 24.9973 145.541 24.6812 145.541 24.1695V16.2977H144.804C144.117 16.2977 143.619 16.4432 143.308 16.7342C142.872 17.1406 142.596 17.7201 142.48 18.4726H142.195V15.7107H151.354ZM161.529 16.9901C160.516 15.9816 159.198 15.5075 157.574 15.5677C156.07 15.5075 154.801 15.9841 153.768 16.9976C152.741 18.006 152.227 19.2678 152.227 20.783C152.227 22.1326 152.623 23.299 153.415 24.2824C154.418 25.5266 155.836 26.1487 157.671 26.1487C159.501 26.1487 160.918 25.4965 161.92 24.1921C162.677 23.2087 163.056 22.0698 163.056 20.7754C163.056 19.2603 162.547 17.9985 161.529 16.9901ZM155.536 17.4792C156.022 16.526 156.731 16.0494 157.664 16.0494C158.17 16.0494 158.616 16.1873 159.002 16.4633C159.393 16.7392 159.714 17.2133 159.965 17.8856C160.216 18.5529 160.341 19.5613 160.341 20.9109C160.341 22.0448 160.218 22.9654 159.973 23.6728C159.727 24.3752 159.383 24.8869 158.942 25.208C158.596 25.4589 158.165 25.5843 157.649 25.5843C156.882 25.5843 156.285 25.2933 155.859 24.7113C155.247 23.8785 154.941 22.5916 154.941 20.8507C154.941 19.3857 155.14 18.2619 155.536 17.4792ZM163.973 15.7107H169.237V15.9892H168.974C168.578 15.9892 168.305 16.0318 168.155 16.1171C168.009 16.1974 167.904 16.3103 167.839 16.4558C167.779 16.6012 167.748 16.965 167.748 17.547V22.544C167.748 23.4571 167.816 24.0616 167.951 24.3576C168.092 24.6536 168.32 24.8995 168.636 25.0951C168.952 25.2908 169.35 25.3886 169.832 25.3886C170.383 25.3886 170.852 25.2657 171.238 25.0199C171.629 24.769 171.92 24.4254 172.11 23.9889C172.306 23.5524 172.403 22.7923 172.403 21.7086V17.547C172.403 17.0904 172.356 16.7643 172.261 16.5686C172.165 16.373 172.045 16.2375 171.9 16.1623C171.674 16.0469 171.356 15.9892 170.945 15.9892V15.7107H174.471V15.9892H174.261C173.975 15.9892 173.737 16.0469 173.547 16.1623C173.356 16.2776 173.218 16.4507 173.133 16.6815C173.068 16.8421 173.035 17.1305 173.035 17.547V21.4226C173.035 22.6217 172.955 23.4872 172.794 24.019C172.639 24.5508 172.256 25.04 171.644 25.4865C171.032 25.933 170.198 26.1562 169.14 26.1562C168.257 26.1562 167.575 26.0383 167.094 25.8025C166.437 25.4815 165.974 25.0701 165.703 24.5683C165.432 24.0666 165.297 23.3918 165.297 22.544V17.547C165.297 16.96 165.264 16.5962 165.199 16.4558C165.134 16.3103 165.021 16.1949 164.861 16.1096C164.7 16.0243 164.404 15.9841 163.973 15.9892V15.7107ZM178.833 24.1243V21.2646H179.503L182.789 25.9154H186V25.637C185.729 25.6219 185.491 25.5366 185.286 25.3811C185.15 25.2707 184.922 24.9923 184.601 24.5458L182.15 21.0915C182.771 20.936 183.255 20.7027 183.601 20.3916C184.143 19.9 184.413 19.2779 184.413 18.5253C184.413 17.9082 184.233 17.3714 183.872 16.9148C183.511 16.4532 183.045 16.1372 182.473 15.9666C181.901 15.796 180.999 15.7107 179.766 15.7107H175.028V15.9892C175.494 15.9892 175.813 16.0318 175.983 16.1171C176.154 16.2024 176.271 16.3178 176.337 16.4633C176.407 16.6038 176.442 16.9499 176.442 17.5018V24.1243C176.442 24.6762 176.407 25.0224 176.337 25.1629C176.271 25.3033 176.154 25.4187 175.983 25.509C175.818 25.5943 175.499 25.637 175.028 25.637V25.9154H180.247V25.637C179.781 25.637 179.462 25.5943 179.292 25.509C179.121 25.4238 179.001 25.3109 178.931 25.1704C178.866 25.0249 178.833 24.6762 178.833 24.1243ZM178.833 20.7303V16.2601H179.638C180.445 16.2601 181.029 16.4457 181.39 16.817C181.756 17.1882 181.939 17.7627 181.939 18.5403C181.939 19.0772 181.839 19.5137 181.638 19.8498C181.443 20.1809 181.172 20.4117 180.826 20.5422C180.48 20.6676 179.959 20.7303 179.262 20.7303H178.833Z" fill="#208B2B"/>
</svg>
