<svg width="27" height="28" viewBox="0 0 27 28" fill="none" xmlns="http://www.w3.org/2000/svg">
<path d="M13.9124 14.8588C14.5148 14.8588 15.0031 14.3478 15.0031 13.7175C15.0031 13.0872 14.5148 12.5762 13.9124 12.5762C13.3101 12.5762 12.8218 13.0872 12.8218 13.7175C12.8218 14.3478 13.3101 14.8588 13.9124 14.8588Z" stroke="#240F4F" stroke-width="2.2855" stroke-linecap="round" stroke-linejoin="round"/>
<path d="M13.9124 6.8708C14.5148 6.8708 15.0031 6.35981 15.0031 5.72947C15.0031 5.09913 14.5148 4.58813 13.9124 4.58813C13.3101 4.58813 12.8218 5.09913 12.8218 5.72947C12.8218 6.35981 13.3101 6.8708 13.9124 6.8708Z" stroke="#240F4F" stroke-width="2.2855" stroke-linecap="round" stroke-linejoin="round"/>
<path d="M13.9124 22.8499C14.5148 22.8499 15.0031 22.3389 15.0031 21.7086C15.0031 21.0783 14.5148 20.5673 13.9124 20.5673C13.3101 20.5673 12.8218 21.0783 12.8218 21.7086C12.8218 22.3389 13.3101 22.8499 13.9124 22.8499Z" stroke="#240F4F" stroke-width="2.2855" stroke-linecap="round" stroke-linejoin="round"/>
</svg>
