<svg width="15" height="12" viewBox="0 0 15 12" fill="none" xmlns="http://www.w3.org/2000/svg">
<path d="M0 11.9072V9.98223C0 9.59264 0.0995454 9.23446 0.298636 8.90766C0.497273 8.58133 0.761364 8.33223 1.09091 8.16035C1.79545 7.80514 2.51136 7.53862 3.23864 7.36079C3.96591 7.18341 4.70455 7.09473 5.45455 7.09473C6.20455 7.09473 6.94318 7.18341 7.67045 7.36079C8.39773 7.53862 9.11364 7.80514 9.81818 8.16035C10.1477 8.33223 10.4118 8.58133 10.6105 8.90766C10.8095 9.23446 10.9091 9.59264 10.9091 9.98223V11.9072H0ZM12.2727 11.9072V9.84473C12.2727 9.34056 12.1336 8.85633 11.8555 8.39204C11.5768 7.92821 11.1818 7.53014 10.6705 7.19785C11.25 7.2666 11.7955 7.38393 12.3068 7.54985C12.8182 7.71623 13.2955 7.91973 13.7386 8.16035C14.1477 8.38952 14.4602 8.64435 14.6761 8.92485C14.892 9.20581 15 9.51243 15 9.84473V11.9072H12.2727ZM5.45455 6.40723C4.70455 6.40723 4.0625 6.13796 3.52841 5.59941C2.99432 5.06087 2.72727 4.41348 2.72727 3.65723C2.72727 2.90098 2.99432 2.25358 3.52841 1.71504C4.0625 1.1765 4.70455 0.907227 5.45455 0.907227C6.20455 0.907227 6.84659 1.1765 7.38068 1.71504C7.91477 2.25358 8.18182 2.90098 8.18182 3.65723C8.18182 4.41348 7.91477 5.06087 7.38068 5.59941C6.84659 6.13796 6.20455 6.40723 5.45455 6.40723ZM12.2727 3.65723C12.2727 4.41348 12.0057 5.06087 11.4716 5.59941C10.9375 6.13796 10.2955 6.40723 9.54545 6.40723C9.42045 6.40723 9.26136 6.39302 9.06818 6.3646C8.875 6.33573 8.71591 6.3041 8.59091 6.26973C8.89773 5.90306 9.13341 5.49629 9.29795 5.04941C9.46295 4.60254 9.54545 4.13848 9.54545 3.65723C9.54545 3.17598 9.46295 2.71191 9.29795 2.26504C9.13341 1.81816 8.89773 1.41139 8.59091 1.04473C8.75 0.987435 8.90909 0.950081 9.06818 0.932664C9.22727 0.915706 9.38636 0.907227 9.54545 0.907227C10.2955 0.907227 10.9375 1.1765 11.4716 1.71504C12.0057 2.25358 12.2727 2.90098 12.2727 3.65723Z" fill="white"/>
</svg>
