<svg width="15" height="15" viewBox="0 0 15 15" fill="none" xmlns="http://www.w3.org/2000/svg">
<path d="M1.8691e-06 0.875C1.88003e-06 0.625 0.083334 0.416666 0.250001 0.249999C0.416667 0.0833327 0.625001 -6.28351e-07 0.875001 -6.17423e-07L4.25 -4.69897e-07C4.44445 -4.61398e-07 4.61472 0.0624995 4.76083 0.187499C4.90639 0.312499 5 0.472222 5.04167 0.666666L5.625 3.54167C5.65278 3.73611 5.63556 3.93417 5.57333 4.13583C5.51056 4.33694 5.41667 4.5 5.29167 4.625L3.33333 6.58333C3.97222 7.63889 4.72917 8.60417 5.60417 9.47917C6.47917 10.3542 7.41667 11.0833 8.41667 11.6667L10.4583 9.66667C10.5833 9.54167 10.7258 9.46167 10.8858 9.42667C11.0453 9.39222 11.2222 9.38889 11.4167 9.41667L14.3333 9.95833C14.5278 9.98611 14.6875 10.0764 14.8125 10.2292C14.9375 10.3819 15 10.5556 15 10.75L15 14.125C15 14.375 14.9167 14.5833 14.75 14.75C14.5833 14.9167 14.375 15 14.125 15C12.3333 15 10.5869 14.6006 8.88583 13.8017C7.18417 13.0033 5.67722 11.9478 4.365 10.635C3.05222 9.32278 1.99667 7.81611 1.19833 6.115C0.399445 4.41333 1.79078e-06 2.66667 1.8691e-06 0.875Z" fill="#208B2B"/>
</svg>
