<svg width="38" height="39" viewBox="0 0 38 39" fill="none" xmlns="http://www.w3.org/2000/svg">
<path d="M32.6852 13.8594V6.87046C32.6852 6.25787 32.1886 5.76123 31.576 5.76123H24.5871L19.7135 0.908068C19.2806 0.477096 18.5809 0.477096 18.1481 0.908068L13.2746 5.76123H6.28562C5.67303 5.76123 5.17639 6.25787 5.17639 6.87046V13.8594L0.323229 18.733C-0.107743 19.1658 -0.107743 19.8656 0.323229 20.2984L5.17639 25.1719V32.1608C5.17639 32.7734 5.67303 33.2701 6.28562 33.2701H13.2746L18.1481 38.1232C18.3645 38.3387 18.6477 38.4465 18.9308 38.4465C19.214 38.4465 19.4971 38.3387 19.7135 38.1232L24.5871 33.2701H31.576C32.1886 33.2701 32.6852 32.7734 32.6852 32.1608V25.1719L37.5384 20.2984C37.9694 19.8656 37.9694 19.1658 37.5384 18.733L32.6852 13.8594ZM30.79 23.931C30.583 24.139 30.4668 24.4204 30.4668 24.7137V31.0516H24.1289C23.8356 31.0516 23.5541 31.1679 23.3463 31.3748L18.9308 35.7718L14.5154 31.3748C14.3075 31.1679 14.0261 31.0516 13.7327 31.0516H7.39485V24.7138C7.39485 24.4204 7.2786 24.139 7.07162 23.9311L2.67464 19.5156L7.07162 15.1003C7.2786 14.8923 7.39485 14.6109 7.39485 14.3176V7.97969H13.7327C14.026 7.97969 14.3075 7.86344 14.5153 7.65646L18.9308 3.25948L23.3463 7.65646C23.5542 7.86344 23.8356 7.97969 24.1289 7.97969H30.4668V14.3175C30.4668 14.6109 30.583 14.8923 30.79 15.1002L35.187 19.5156L30.79 23.931Z" fill="#208B2B"/>
<path d="M14.6352 22.3468V21.0805L19.5824 13.9836H21.6144V20.8891H22.9837V22.3468H21.6144V24.5848H19.9653V22.3468H14.6352ZM20.0389 15.6916L16.564 20.8891H20.0389V15.6916Z" fill="#208B2B"/>
</svg>
