<svg width="38" height="39" viewBox="0 0 38 39" fill="none" xmlns="http://www.w3.org/2000/svg">
<path d="M32.6852 13.7211V6.73215C32.6852 6.11956 32.1886 5.62293 31.576 5.62293H24.5871L19.7135 0.769762C19.2806 0.33879 18.5809 0.33879 18.1481 0.769762L13.2746 5.62293H6.28562C5.67303 5.62293 5.17639 6.11956 5.17639 6.73215V13.7211L0.323229 18.5947C-0.107743 19.0275 -0.107743 19.7273 0.323229 20.1601L5.17639 25.0336V32.0225C5.17639 32.6351 5.67303 33.1318 6.28562 33.1318H13.2746L18.1481 37.9849C18.3645 38.2004 18.6477 38.3082 18.9308 38.3082C19.214 38.3082 19.4971 38.2004 19.7135 37.9849L24.5871 33.1318H31.576C32.1886 33.1318 32.6852 32.6351 32.6852 32.0225V25.0336L37.5384 20.1601C37.9694 19.7273 37.9694 19.0275 37.5384 18.5947L32.6852 13.7211ZM30.79 23.7927C30.583 24.0007 30.4668 24.282 30.4668 24.5754V30.9133H24.1289C23.8356 30.9133 23.5541 31.0296 23.3463 31.2365L18.9308 35.6335L14.5154 31.2365C14.3075 31.0296 14.0261 30.9133 13.7327 30.9133H7.39485V24.5755C7.39485 24.2821 7.2786 24.0007 7.07162 23.7928L2.67464 19.3773L7.07162 14.962C7.2786 14.754 7.39485 14.4726 7.39485 14.1793V7.84138H13.7327C14.026 7.84138 14.3075 7.72513 14.5153 7.51815L18.9308 3.12118L23.3463 7.51815C23.5542 7.72513 23.8356 7.84138 24.1289 7.84138H30.4668V14.1792C30.4668 14.4726 30.583 14.754 30.79 14.9619L35.187 19.3773L30.79 23.7927Z" fill="#208B2B"/>
<path d="M21.8263 15.1557H16.8938V18.0858C17.0999 17.8109 17.4042 17.5803 17.8067 17.3938C18.2189 17.2073 18.6557 17.114 19.1171 17.114C19.9416 17.114 20.6091 17.2907 21.1195 17.6441C21.6398 17.9974 22.0079 18.4441 22.2238 18.9839C22.4496 19.5238 22.5625 20.0931 22.5625 20.6919C22.5625 21.4183 22.4202 22.0662 22.1355 22.6355C21.8607 23.195 21.4435 23.6367 20.884 23.9606C20.3343 24.2846 19.657 24.4465 18.8521 24.4465C17.7821 24.4465 16.9232 24.1815 16.2754 23.6514C15.6275 23.1214 15.2398 22.4195 15.1122 21.5459H16.7465C16.8545 22.0073 17.095 22.3754 17.468 22.6502C17.841 22.9152 18.3073 23.0478 18.8668 23.0478C19.5637 23.0478 20.084 22.8367 20.4275 22.4146C20.7809 21.9925 20.9576 21.433 20.9576 20.7361C20.9576 20.0293 20.7809 19.4895 20.4275 19.1165C20.0741 18.7336 19.5539 18.5422 18.8668 18.5422C18.3858 18.5422 17.9784 18.6649 17.6447 18.9103C17.3208 19.1459 17.0852 19.4698 16.9379 19.8821H15.3478V13.6833H21.8263V15.1557Z" fill="#208B2B"/>
</svg>
