<svg width="38" height="39" viewBox="0 0 38 39" fill="none" xmlns="http://www.w3.org/2000/svg">
<path d="M32.6852 14.1361V7.14719C32.6852 6.5346 32.1886 6.03797 31.576 6.03797H24.5871L19.7135 1.1848C19.2806 0.753829 18.5809 0.753829 18.1481 1.1848L13.2746 6.03797H6.28562C5.67303 6.03797 5.17639 6.5346 5.17639 7.14719V14.1361L0.323229 19.0097C-0.107743 19.4425 -0.107743 20.1423 0.323229 20.5751L5.17639 25.4486V32.4376C5.17639 33.0502 5.67303 33.5468 6.28562 33.5468H13.2746L18.1481 38.4C18.3645 38.6154 18.6477 38.7232 18.9308 38.7232C19.214 38.7232 19.4971 38.6154 19.7135 38.4L24.5871 33.5468H31.576C32.1886 33.5468 32.6852 33.0502 32.6852 32.4376V25.4486L37.5384 20.5751C37.9694 20.1423 37.9694 19.4425 37.5384 19.0097L32.6852 14.1361ZM30.79 24.2078C30.583 24.4157 30.4668 24.6971 30.4668 24.9904V31.3283H24.1289C23.8356 31.3283 23.5541 31.4446 23.3463 31.6516L18.9308 36.0485L14.5154 31.6516C14.3075 31.4446 14.0261 31.3283 13.7327 31.3283H7.39485V24.9905C7.39485 24.6972 7.2786 24.4157 7.07162 24.2078L2.67464 19.7924L7.07162 15.377C7.2786 15.169 7.39485 14.8877 7.39485 14.5943V8.25642H13.7327C14.026 8.25642 14.3075 8.14017 14.5153 7.93319L18.9308 3.53621L23.3463 7.93319C23.5542 8.14017 23.8356 8.25642 24.1289 8.25642H30.4668V14.5942C30.4668 14.8876 30.583 15.169 30.79 15.3769L35.187 19.7924L30.79 24.2078Z" fill="#208B2B"/>
<path d="M16.7867 22.5794C17.729 21.7646 18.4701 21.0971 19.01 20.5769C19.5597 20.0468 20.0162 19.4971 20.3793 18.9278C20.7425 18.3585 20.9241 17.7892 20.9241 17.2198C20.9241 16.6309 20.7818 16.1695 20.4971 15.8358C20.2223 15.502 19.7855 15.3352 19.1867 15.3352C18.6076 15.3352 18.156 15.5217 17.8321 15.8947C17.518 16.2579 17.3511 16.7487 17.3315 17.3671H15.7119C15.7413 16.2481 16.075 15.3941 16.7131 14.8051C17.3609 14.2063 18.1806 13.9069 19.172 13.9069C20.2419 13.9069 21.0763 14.2014 21.6751 14.7904C22.2836 15.3793 22.5879 16.1646 22.5879 17.1462C22.5879 17.853 22.4063 18.5352 22.0432 19.1928C21.6898 19.8407 21.2628 20.4248 20.7622 20.945C20.2714 21.4554 19.6431 22.0493 18.8775 22.7266L18.2149 23.3156H22.8824V24.7143H15.7266V23.4922L16.7867 22.5794Z" fill="#208B2B"/>
</svg>
