<svg width="38" height="38" viewBox="0 0 38 38" fill="none" xmlns="http://www.w3.org/2000/svg">
<path d="M32.6852 13.2746V6.28562C32.6852 5.67303 32.1886 5.17639 31.576 5.17639H24.5871L19.7135 0.323229C19.2806 -0.107743 18.5809 -0.107743 18.1481 0.323229L13.2746 5.17639H6.28562C5.67303 5.17639 5.17639 5.67303 5.17639 6.28562V13.2746L0.323229 18.1481C-0.107743 18.581 -0.107743 19.2807 0.323229 19.7136L5.17639 24.5871V31.576C5.17639 32.1886 5.67303 32.6852 6.28562 32.6852H13.2746L18.1481 37.5384C18.3645 37.7539 18.6477 37.8616 18.9308 37.8616C19.214 37.8616 19.4971 37.7539 19.7135 37.5384L24.5871 32.6852H31.576C32.1886 32.6852 32.6852 32.1886 32.6852 31.576V24.5871L37.5384 19.7136C37.9694 19.2807 37.9694 18.581 37.5384 18.1481L32.6852 13.2746ZM30.79 23.3462C30.583 23.5541 30.4668 23.8355 30.4668 24.1289V30.4668H24.1289C23.8356 30.4668 23.5541 30.583 23.3463 30.79L18.9308 35.187L14.5154 30.79C14.3075 30.583 14.0261 30.4668 13.7327 30.4668H7.39485V24.1289C7.39485 23.8356 7.2786 23.5541 7.07162 23.3463L2.67464 18.9308L7.07162 14.5154C7.2786 14.3075 7.39485 14.0261 7.39485 13.7327V7.39485H13.7327C14.026 7.39485 14.3075 7.2786 14.5153 7.07162L18.9308 2.67464L23.3463 7.07162C23.5542 7.2786 23.8356 7.39485 24.1289 7.39485H30.4668V13.7327C30.4668 14.026 30.583 14.3075 30.79 14.5153L35.187 18.9308L30.79 23.3462Z" fill="#208B2B"/>
<path d="M16.9168 14.7975V13.2662H19.9793V24H18.2861V14.7975H16.9168Z" fill="#208B2B"/>
</svg>
