<svg width="38" height="39" viewBox="0 0 38 39" fill="none" xmlns="http://www.w3.org/2000/svg">
<path d="M32.6852 13.9978V7.00889C32.6852 6.3963 32.1886 5.89966 31.576 5.89966H24.5871L19.7135 1.0465C19.2806 0.615524 18.5809 0.615524 18.1481 1.0465L13.2746 5.89966H6.28562C5.67303 5.89966 5.17639 6.3963 5.17639 7.00889V13.9978L0.323229 18.8714C-0.107743 19.3042 -0.107743 20.004 0.323229 20.4368L5.17639 25.3103V32.2993C5.17639 32.9119 5.67303 33.4085 6.28562 33.4085H13.2746L18.1481 38.2617C18.3645 38.4771 18.6477 38.5849 18.9308 38.5849C19.214 38.5849 19.4971 38.4771 19.7135 38.2617L24.5871 33.4085H31.576C32.1886 33.4085 32.6852 32.9119 32.6852 32.2993V25.3103L37.5384 20.4368C37.9694 20.004 37.9694 19.3042 37.5384 18.8714L32.6852 13.9978ZM30.79 24.0695C30.583 24.2774 30.4668 24.5588 30.4668 24.8521V31.19H24.1289C23.8356 31.19 23.5541 31.3063 23.3463 31.5133L18.9308 35.9102L14.5154 31.5133C14.3075 31.3063 14.0261 31.19 13.7327 31.19H7.39485V24.8522C7.39485 24.5589 7.2786 24.2774 7.07162 24.0695L2.67464 19.6541L7.07162 15.2387C7.2786 15.0307 7.39485 14.7494 7.39485 14.456V8.11811H13.7327C14.026 8.11811 14.3075 8.00187 14.5153 7.79489L18.9308 3.39791L23.3463 7.79489C23.5542 8.00187 23.8356 8.11811 24.1289 8.11811H30.4668V14.4559C30.4668 14.7493 30.583 15.0307 30.79 15.2386L35.187 19.6541L30.79 24.0695Z" fill="#208B2B"/>
<path d="M15.7073 16.6398C15.7662 15.7269 16.1147 15.0153 16.7527 14.5048C17.4006 13.9944 18.2251 13.7392 19.2263 13.7392C19.9134 13.7392 20.5073 13.8619 21.0079 14.1073C21.5085 14.3527 21.8865 14.6864 22.1417 15.1085C22.3969 15.5306 22.5245 16.0067 22.5245 16.5367C22.5245 17.1453 22.3625 17.6656 22.0386 18.0975C21.7147 18.5294 21.3269 18.819 20.8754 18.9662V19.0251C21.4546 19.2018 21.9061 19.5257 22.23 19.9969C22.5539 20.4582 22.7159 21.0521 22.7159 21.7785C22.7159 22.3576 22.5834 22.873 22.3184 23.3245C22.0533 23.776 21.6607 24.1343 21.1404 24.3993C20.6202 24.6546 19.9969 24.7822 19.2705 24.7822C18.2104 24.7822 17.3368 24.5122 16.6496 23.9723C15.9723 23.4226 15.6091 22.6374 15.5601 21.6165H17.1797C17.219 22.1368 17.4202 22.5638 17.7834 22.8975C18.1466 23.2214 18.6374 23.3834 19.2558 23.3834C19.8546 23.3834 20.3159 23.2214 20.6398 22.8975C20.9638 22.5638 21.1257 22.1368 21.1257 21.6165C21.1257 20.9294 20.9049 20.4435 20.4631 20.1588C20.0312 19.8644 19.3638 19.7171 18.4607 19.7171H18.0779V18.3331H18.4754C19.2705 18.3233 19.8742 18.1907 20.2865 17.9355C20.7085 17.6803 20.9196 17.2778 20.9196 16.7282C20.9196 16.257 20.7674 15.884 20.4631 15.6091C20.1588 15.3245 19.7269 15.1821 19.1674 15.1821C18.6177 15.1821 18.1907 15.3245 17.8864 15.6091C17.5822 15.884 17.4006 16.2275 17.3417 16.6398H15.7073Z" fill="#208B2B"/>
</svg>
