<svg width="15" height="15" viewBox="0 0 15 15" fill="none" xmlns="http://www.w3.org/2000/svg">
<path d="M7.4925 0C3.3525 0 0 3.36 0 7.5C0 11.64 3.3525 15 7.4925 15C11.64 15 15 11.64 15 7.5C15 3.36 11.64 0 7.4925 0ZM10.5 10.5C10.4306 10.5695 10.3482 10.6247 10.2575 10.6623C10.1667 10.7 10.0695 10.7193 9.97125 10.7193C9.87302 10.7193 9.77576 10.7 9.68503 10.6623C9.5943 10.6247 9.51189 10.5695 9.4425 10.5L6.975 8.0325C6.90413 7.96304 6.84776 7.88021 6.80913 7.7888C6.77051 7.69739 6.75041 7.59923 6.75 7.5V4.5C6.75 4.0875 7.0875 3.75 7.5 3.75C7.9125 3.75 8.25 4.0875 8.25 4.5V7.1925L10.5 9.4425C10.7925 9.735 10.7925 10.2075 10.5 10.5Z" fill="white"/>
</svg>
