<svg width="14" height="14" viewBox="0 0 14 14" fill="none" xmlns="http://www.w3.org/2000/svg">
<path d="M7 7C6.0375 7 5.21354 6.65729 4.52813 5.97187C3.84271 5.28646 3.5 4.4625 3.5 3.5C3.5 2.5375 3.84271 1.71354 4.52813 1.02813C5.21354 0.342708 6.0375 0 7 0C7.9625 0 8.78646 0.342708 9.47188 1.02813C10.1573 1.71354 10.5 2.5375 10.5 3.5C10.5 4.4625 10.1573 5.28646 9.47188 5.97187C8.78646 6.65729 7.9625 7 7 7ZM1.75 14C1.26875 14 0.856917 13.8288 0.5145 13.4864C0.1715 13.1434 0 12.7312 0 12.25V11.55C0 11.0542 0.12775 10.5983 0.38325 10.1824C0.638167 9.76704 0.977083 9.45 1.4 9.23125C2.30417 8.77917 3.22292 8.43996 4.15625 8.21362C5.08958 7.98787 6.0375 7.875 7 7.875C7.9625 7.875 8.91042 7.98787 9.84375 8.21362C10.7771 8.43996 11.6958 8.77917 12.6 9.23125C13.0229 9.45 13.3618 9.76704 13.6168 10.1824C13.8723 10.5983 14 11.0542 14 11.55V12.25C14 12.7312 13.8288 13.1434 13.4864 13.4864C13.1434 13.8288 12.7312 14 12.25 14H1.75Z" fill="#109B20"/>
</svg>
