<svg width="21" height="24" viewBox="0 0 21 24" fill="none" xmlns="http://www.w3.org/2000/svg">
<path fill-rule="evenodd" clip-rule="evenodd" d="M1.776 0H18.327H18.328C19.309 0 20.104 0.795 20.104 1.776V22.225C20.104 23.206 19.309 24.001 18.328 24.001H1.776C0.795 24.001 0 23.206 0 22.225V1.776C0 0.795 0.795 0 1.776 0ZM10.5195 2.728C10.4812 2.726 10.443 2.724 10.407 2.72V5.114H10.431C11.177 5.096 11.914 5.038 12.535 4.954L12.521 4.912C12.42 4.649 12.301 4.395 12.182 4.183L12.171 4.161C11.94 3.722 11.631 3.331 11.258 3.002L11.26 3.003C11.089 2.856 10.874 2.76 10.632 2.736C10.596 2.732 10.5578 2.73 10.5195 2.728ZM10.427 10.933C11.2299 10.9462 12.0312 11.0103 12.826 11.125L12.823 11.129L12.807 11.202C12.987 10.5 13.096 9.769 13.127 8.997H10.407V10.933H10.427ZM12.658 11.962C11.9117 11.8602 11.1601 11.8031 10.407 11.791L10.406 14.256H10.408C10.4826 14.2551 10.5571 14.2498 10.631 14.24H10.636C10.8656 14.2185 11.083 14.1262 11.258 13.976L11.263 13.972C11.6405 13.6408 11.9523 13.2415 12.182 12.795L12.164 12.831C12.3173 12.5477 12.4497 12.2536 12.56 11.951L12.658 11.962ZM13.253 12.107C13.121 12.473 12.961 12.826 12.794 13.125L12.792 13.13L12.781 13.153C12.666 13.373 12.532 13.582 12.388 13.768L12.424 13.753C13.0671 13.4655 13.6515 13.0617 14.148 12.562C14.1563 12.5536 14.1647 12.5452 14.1731 12.5366C14.2463 12.4627 14.3253 12.383 14.397 12.296H14.389C14.016 12.201 13.639 12.12 13.269 12.056L13.253 12.107ZM14.94 11.59C15.4338 10.807 15.7335 9.91726 15.814 8.995L13.843 8.996L13.842 9.018C13.809 9.807 13.695 10.575 13.523 11.236C13.9709 11.3236 14.4158 11.4256 14.857 11.542L14.954 11.566L14.94 11.59ZM12.8025 5.7839C12.008 5.88898 11.2083 5.94977 10.407 5.966L10.412 7.984H13.132L13.131 7.964C13.1 7.18776 12.9812 6.43447 12.8025 5.7839ZM14.811 5.371C14.381 5.492 13.951 5.589 13.501 5.669L13.5006 5.66981C13.6937 6.42627 13.8042 7.20155 13.83 7.982H15.807L15.806 7.961C15.723 6.993 15.399 6.095 14.907 5.347L14.811 5.371ZM13.243 4.841C13.605 4.777 13.974 4.697 14.336 4.608L14.338 4.609C14.3172 4.58557 14.2962 4.56288 14.2755 4.54044C14.2326 4.49395 14.1908 4.44857 14.153 4.4C13.6452 3.89434 13.049 3.48607 12.3939 3.19542C12.5428 3.40358 12.6791 3.6205 12.802 3.845L12.782 3.805C12.9617 4.13817 13.1158 4.4845 13.243 4.841ZM9.478 2.736C9.241 2.759 9.025 2.855 8.856 3.001L8.839 3.003L8.835 3.006C8.473 3.33 8.17 3.718 7.931 4.175L7.949 4.139C7.816 4.384 7.697 4.638 7.578 4.946L7.482 4.935C8.21988 5.03676 8.96323 5.09387 9.708 5.106V2.72H9.706C9.627 2.721 9.549 2.727 9.483 2.736H9.478ZM6.59285 11.238C6.13663 11.3257 5.6884 11.4225 5.264 11.543L5.167 11.567C4.67634 10.7997 4.38139 9.92379 4.308 9.016L4.307 8.996H6.284C6.30527 9.77606 6.41063 10.5225 6.59285 11.238ZM6.842 12.065C6.46539 12.1289 6.09171 12.209 5.722 12.305H5.725C5.797 12.3923 5.869 12.4723 5.941 12.5523C5.949 12.5612 5.957 12.5701 5.965 12.579C6.47279 13.0846 7.06896 13.4929 7.72397 13.7835C7.58238 13.5864 7.45153 13.3789 7.316 13.134L7.336 13.174C7.152 12.836 6.992 12.484 6.842 12.065ZM9.697 11.791C8.94 11.8 8.194 11.858 7.554 11.951L7.553 11.955L7.569 12.002C7.6718 12.2743 7.79308 12.5392 7.932 12.795L7.943 12.817C8.17458 13.2555 8.48394 13.6482 8.856 13.976L8.852 13.973C8.95169 14.057 9.05767 14.1332 9.169 14.201C9.34736 14.228 9.52689 14.2467 9.707 14.257V11.791H9.697ZM7.28937 11.1206C8.07506 11.0101 8.87689 10.9463 9.708 10.93V8.994H6.976L6.977 9.013C7.00312 9.7249 7.10788 10.4317 7.28937 11.1206ZM9.698 5.965C8.90003 5.9582 8.10347 5.89639 7.314 5.78L7.311 5.786L7.328 5.712C7.133 6.433 7.013 7.185 6.976 7.982H9.708V5.965H9.698ZM7.71667 3.20175C7.58472 3.38468 7.45106 3.59348 7.33 3.811L7.313 3.844C7.14514 4.14822 7.00234 4.4656 6.886 4.793L6.872 4.84C6.50531 4.77383 6.1408 4.69613 5.779 4.607H5.771C5.83358 4.53573 5.89793 4.46604 5.964 4.398C6.46283 3.90501 7.04519 3.50447 7.684 3.215L7.71667 3.20175ZM6.615 5.668C6.165 5.579 5.731 5.483 5.305 5.37L5.208 5.346L5.221 5.325C4.69722 6.12 4.38062 7.03339 4.3 7.982H6.277L6.278 7.962C6.30509 7.18722 6.41812 6.41784 6.615 5.668ZM5.844 19.157C5.97314 19.1228 6.09531 19.0663 6.205 18.99L6.204 18.995L6.207 18.993C6.33193 18.9073 6.43142 18.7895 6.495 18.652L6.492 18.66C6.572 18.495 6.616 18.31 6.616 18.114C6.616 17.86 6.541 17.624 6.415 17.431L6.413 17.429C6.28652 17.2627 6.1092 17.1423 5.908 17.086L5.931 17.09C5.64836 17.0363 5.36036 17.0161 5.073 17.03H3.94V20.525H4.647V19.207H5.1L5.2 19.208C5.41296 19.2084 5.62561 19.192 5.836 19.159L5.844 19.157ZM8.92 19.729L9.226 20.524H9.988L8.59 17.029H7.843L6.483 20.524H7.23L7.52 19.729H8.92ZM12.398 20.457C12.5908 20.3784 12.7544 20.2417 12.866 20.066L12.8628 20.0697C12.9638 19.9152 13.022 19.7299 13.022 19.531V19.506L13.023 19.46C13.0237 19.2807 12.976 19.1045 12.885 18.95L12.883 18.946C12.789 18.801 12.659 18.681 12.5 18.596L12.524 18.606C12.283 18.496 12.028 18.41 11.737 18.347L11.726 18.346C11.493 18.308 11.274 18.226 11.086 18.115H11.085C11.022 18.068 10.981 17.993 10.981 17.909V17.906C10.9814 17.8635 10.9919 17.8217 11.0115 17.784C11.0311 17.7463 11.0594 17.7137 11.094 17.689L11.091 17.691C11.2328 17.5951 11.4025 17.5493 11.5733 17.561L11.627 17.559C11.7688 17.5585 11.9073 17.6015 12.024 17.682C12.1321 17.7833 12.2005 17.9198 12.217 18.067L12.924 18.035V18.019C12.924 17.8757 12.8931 17.734 12.8334 17.6038C12.7736 17.4735 12.6866 17.3576 12.578 17.264L12.582 17.267C12.2995 17.05 11.9465 16.9456 11.5914 16.974L11.544 16.973C11.312 16.973 11.091 17.017 10.9 17.094L10.894 17.096C10.722 17.17 10.575 17.292 10.467 17.447L10.469 17.444C10.371 17.584 10.314 17.754 10.314 17.938V17.963C10.3141 18.0942 10.3428 18.2238 10.398 18.3428C10.4528 18.4607 10.5323 18.5654 10.6312 18.6497C10.8675 18.8242 11.1402 18.943 11.429 18.997C11.4523 19.0029 11.4749 19.0087 11.4969 19.0143C11.7465 19.0777 11.9155 19.1206 11.989 19.15L11.994 19.151C12.0883 19.1818 12.1744 19.2334 12.246 19.302V19.301C12.2933 19.3573 12.3191 19.4285 12.319 19.502V19.511C12.3165 19.5768 12.2994 19.6413 12.2687 19.6996C12.2381 19.7579 12.1948 19.8086 12.142 19.848L12.146 19.846C11.9913 19.9448 11.811 19.9961 11.6274 19.9936C11.4438 19.9911 11.265 19.935 11.113 19.832C10.978 19.702 10.888 19.527 10.864 19.327L10.181 19.391V19.395C10.2047 19.7343 10.3566 20.0518 10.606 20.283L10.602 20.28C10.8959 20.5015 11.2592 20.6107 11.6265 20.588L11.697 20.589C11.947 20.589 12.185 20.541 12.391 20.459L12.398 20.457ZM11.6265 20.588C11.6266 20.588 11.6268 20.588 11.627 20.588H11.624L11.6265 20.588ZM11.5914 16.974C11.5913 16.974 11.5911 16.974 11.591 16.974H11.593L11.5914 16.974ZM12.8628 20.0697L12.86 20.073L12.858 20.077C12.8596 20.0746 12.8612 20.0722 12.8628 20.0697ZM16.115 20.0738C16.1167 20.0712 16.1183 20.0686 16.12 20.066L16.114 20.075L16.112 20.078C16.113 20.0766 16.114 20.0752 16.115 20.0738ZM16.275 19.5058L16.277 19.564C16.2773 19.7467 16.2207 19.9249 16.115 20.0738C16.0035 20.2458 15.8419 20.3796 15.652 20.457L15.645 20.459C15.439 20.541 15.201 20.589 14.951 20.589L14.8805 20.588C14.8806 20.588 14.8808 20.588 14.881 20.588H14.878L14.8805 20.588C14.5132 20.6107 14.1499 20.5015 13.856 20.28L13.86 20.283C13.6106 20.0518 13.4587 19.7343 13.435 19.395V19.391L14.118 19.327C14.142 19.527 14.232 19.702 14.367 19.832C14.519 19.935 14.6978 19.9911 14.8814 19.9936C15.065 19.9961 15.2453 19.9448 15.4 19.846L15.396 19.848C15.4488 19.8086 15.4921 19.7579 15.5227 19.6996C15.5534 19.6413 15.5705 19.5768 15.573 19.511V19.502C15.5731 19.4285 15.5473 19.3573 15.5 19.301V19.302C15.4284 19.2334 15.3423 19.1818 15.248 19.151L15.243 19.15C15.1695 19.1206 15.0005 19.0777 14.7509 19.0143C14.7289 19.0087 14.7063 19.0029 14.683 18.997C14.3942 18.943 14.1215 18.8242 13.8852 18.6497C13.7863 18.5654 13.7068 18.4607 13.652 18.3428C13.5968 18.2238 13.5681 18.0942 13.568 17.963V17.938C13.568 17.754 13.625 17.584 13.723 17.444L13.721 17.447C13.8275 17.2922 13.9755 17.1705 14.148 17.096L14.154 17.094C14.345 17.017 14.567 16.973 14.798 16.973L14.8454 16.974C14.8453 16.974 14.8451 16.974 14.845 16.974H14.847L14.8454 16.974C15.2005 16.9456 15.5535 17.05 15.836 17.267L15.832 17.264C15.9405 17.3576 16.0276 17.4735 16.0874 17.6038C16.1471 17.734 16.178 17.8757 16.178 18.019V18.035L15.471 18.067C15.4545 17.9198 15.3861 17.7833 15.278 17.682C15.1613 17.6015 15.0228 17.5585 14.881 17.559L14.8273 17.561C14.6565 17.5493 14.4868 17.5951 14.345 17.691L14.348 17.689C14.3134 17.7137 14.2851 17.7463 14.2655 17.784C14.2459 17.8217 14.2354 17.8635 14.235 17.906V17.909C14.235 17.993 14.276 18.068 14.339 18.115H14.34C14.527 18.226 14.746 18.307 14.979 18.346L14.99 18.348C15.281 18.411 15.536 18.497 15.777 18.607L15.753 18.597C15.912 18.682 16.042 18.802 16.136 18.947L16.138 18.951C16.229 19.1055 16.2767 19.2817 16.276 19.461L16.275 19.5058ZM16.275 19.5058L16.275 19.505V19.507L16.275 19.5058ZM5.08094 17.626C5.2197 17.6255 5.35834 17.6342 5.49594 17.652L5.49494 17.653H5.49694C5.60316 17.6678 5.6999 17.7221 5.76794 17.805L5.76694 17.804C5.83431 17.8855 5.87385 17.9865 5.87979 18.0921C5.88573 18.1977 5.85775 18.3024 5.79994 18.391L5.79894 18.392C5.74463 18.4674 5.66959 18.5254 5.58294 18.559L5.59494 18.556C5.41132 18.6093 5.21968 18.6297 5.02894 18.616H4.64294V17.627H4.98394L5.08094 17.626ZM8.68594 19.147H7.73794L8.21194 17.853L8.68594 19.147Z" fill="white"/>
</svg>
